<mxfile host="app.diagrams.net" agent="Mozilla/5.0 (Windows NT 10.0; Win64; x64) AppleWebKit/537.36 (KHTML, like Gecko) Chrome/135.0.0.0 Safari/537.36 Edg/135.0.0.0" version="26.2.9">
  <diagram id="C5RBs43oDa-KdzZeNtuy" name="Page-1">
    <mxGraphModel dx="1428" dy="1958" grid="1" gridSize="10" guides="1" tooltips="1" connect="1" arrows="1" fold="1" page="1" pageScale="1" pageWidth="827" pageHeight="1169" math="0" shadow="0">
      <root>
        <mxCell id="WIyWlLk6GJQsqaUBKTNV-0" />
        <mxCell id="WIyWlLk6GJQsqaUBKTNV-1" parent="WIyWlLk6GJQsqaUBKTNV-0" />
        <mxCell id="HMoB0aPH3kr3e-UjhzIO-12" value="Fin" style="ellipse;whiteSpace=wrap;html=1;aspect=fixed;" vertex="1" parent="WIyWlLk6GJQsqaUBKTNV-1">
          <mxGeometry x="890" y="680" width="80" height="80" as="geometry" />
        </mxCell>
        <mxCell id="HMoB0aPH3kr3e-UjhzIO-15" value="" style="edgeStyle=orthogonalEdgeStyle;rounded=0;orthogonalLoop=1;jettySize=auto;html=1;" edge="1" parent="WIyWlLk6GJQsqaUBKTNV-1" source="HMoB0aPH3kr3e-UjhzIO-13" target="HMoB0aPH3kr3e-UjhzIO-14">
          <mxGeometry relative="1" as="geometry" />
        </mxCell>
        <mxCell id="HMoB0aPH3kr3e-UjhzIO-13" value="" style="ellipse;whiteSpace=wrap;html=1;aspect=fixed;" vertex="1" parent="WIyWlLk6GJQsqaUBKTNV-1">
          <mxGeometry x="50" y="70" width="80" height="80" as="geometry" />
        </mxCell>
        <mxCell id="HMoB0aPH3kr3e-UjhzIO-17" value="" style="edgeStyle=orthogonalEdgeStyle;rounded=0;orthogonalLoop=1;jettySize=auto;html=1;" edge="1" parent="WIyWlLk6GJQsqaUBKTNV-1" source="HMoB0aPH3kr3e-UjhzIO-14" target="HMoB0aPH3kr3e-UjhzIO-16">
          <mxGeometry relative="1" as="geometry" />
        </mxCell>
        <mxCell id="HMoB0aPH3kr3e-UjhzIO-14" value="Ingrese el valor de A" style="whiteSpace=wrap;html=1;" vertex="1" parent="WIyWlLk6GJQsqaUBKTNV-1">
          <mxGeometry x="190" y="80" width="120" height="60" as="geometry" />
        </mxCell>
        <mxCell id="HMoB0aPH3kr3e-UjhzIO-19" value="" style="edgeStyle=orthogonalEdgeStyle;rounded=0;orthogonalLoop=1;jettySize=auto;html=1;" edge="1" parent="WIyWlLk6GJQsqaUBKTNV-1" source="HMoB0aPH3kr3e-UjhzIO-16" target="HMoB0aPH3kr3e-UjhzIO-18">
          <mxGeometry relative="1" as="geometry" />
        </mxCell>
        <mxCell id="HMoB0aPH3kr3e-UjhzIO-16" value="Ingrese el Valor de B" style="whiteSpace=wrap;html=1;" vertex="1" parent="WIyWlLk6GJQsqaUBKTNV-1">
          <mxGeometry x="390" y="80" width="120" height="60" as="geometry" />
        </mxCell>
        <mxCell id="HMoB0aPH3kr3e-UjhzIO-21" value="" style="edgeStyle=orthogonalEdgeStyle;rounded=0;orthogonalLoop=1;jettySize=auto;html=1;" edge="1" parent="WIyWlLk6GJQsqaUBKTNV-1" target="HMoB0aPH3kr3e-UjhzIO-20">
          <mxGeometry relative="1" as="geometry">
            <mxPoint x="450" y="250" as="sourcePoint" />
          </mxGeometry>
        </mxCell>
        <mxCell id="HMoB0aPH3kr3e-UjhzIO-25" value="No" style="edgeLabel;html=1;align=center;verticalAlign=middle;resizable=0;points=[];" vertex="1" connectable="0" parent="HMoB0aPH3kr3e-UjhzIO-21">
          <mxGeometry x="-0.4" y="-2" relative="1" as="geometry">
            <mxPoint as="offset" />
          </mxGeometry>
        </mxCell>
        <mxCell id="HMoB0aPH3kr3e-UjhzIO-23" value="" style="edgeStyle=orthogonalEdgeStyle;rounded=0;orthogonalLoop=1;jettySize=auto;html=1;entryX=0.992;entryY=0.617;entryDx=0;entryDy=0;entryPerimeter=0;" edge="1" parent="WIyWlLk6GJQsqaUBKTNV-1" target="HMoB0aPH3kr3e-UjhzIO-16">
          <mxGeometry relative="1" as="geometry">
            <mxPoint x="450" y="165" as="sourcePoint" />
            <mxPoint x="530" y="230" as="targetPoint" />
            <Array as="points">
              <mxPoint x="490" y="165" />
              <mxPoint x="530" y="165" />
              <mxPoint x="530" y="117" />
            </Array>
          </mxGeometry>
        </mxCell>
        <mxCell id="HMoB0aPH3kr3e-UjhzIO-24" value="Si" style="edgeLabel;html=1;align=center;verticalAlign=middle;resizable=0;points=[];" vertex="1" connectable="0" parent="HMoB0aPH3kr3e-UjhzIO-23">
          <mxGeometry x="-0.25" y="1" relative="1" as="geometry">
            <mxPoint as="offset" />
          </mxGeometry>
        </mxCell>
        <mxCell id="HMoB0aPH3kr3e-UjhzIO-18" value="A=B" style="rhombus;whiteSpace=wrap;html=1;" vertex="1" parent="WIyWlLk6GJQsqaUBKTNV-1">
          <mxGeometry x="410" y="190" width="80" height="80" as="geometry" />
        </mxCell>
        <mxCell id="HMoB0aPH3kr3e-UjhzIO-27" value="" style="edgeStyle=orthogonalEdgeStyle;rounded=0;orthogonalLoop=1;jettySize=auto;html=1;" edge="1" parent="WIyWlLk6GJQsqaUBKTNV-1" source="HMoB0aPH3kr3e-UjhzIO-20" target="HMoB0aPH3kr3e-UjhzIO-26">
          <mxGeometry relative="1" as="geometry" />
        </mxCell>
        <mxCell id="HMoB0aPH3kr3e-UjhzIO-20" value="Ingrese el valor de C" style="whiteSpace=wrap;html=1;" vertex="1" parent="WIyWlLk6GJQsqaUBKTNV-1">
          <mxGeometry x="390" y="290" width="120" height="60" as="geometry" />
        </mxCell>
        <mxCell id="HMoB0aPH3kr3e-UjhzIO-29" value="" style="edgeStyle=orthogonalEdgeStyle;rounded=0;orthogonalLoop=1;jettySize=auto;html=1;entryX=0;entryY=0.5;entryDx=0;entryDy=0;" edge="1" parent="WIyWlLk6GJQsqaUBKTNV-1" source="HMoB0aPH3kr3e-UjhzIO-26" target="HMoB0aPH3kr3e-UjhzIO-20">
          <mxGeometry relative="1" as="geometry">
            <mxPoint x="350" y="430" as="targetPoint" />
            <Array as="points">
              <mxPoint x="370" y="420" />
              <mxPoint x="370" y="320" />
            </Array>
          </mxGeometry>
        </mxCell>
        <mxCell id="HMoB0aPH3kr3e-UjhzIO-30" value="Si" style="edgeLabel;html=1;align=center;verticalAlign=middle;resizable=0;points=[];" vertex="1" connectable="0" parent="HMoB0aPH3kr3e-UjhzIO-29">
          <mxGeometry x="-0.2" y="-1" relative="1" as="geometry">
            <mxPoint as="offset" />
          </mxGeometry>
        </mxCell>
        <mxCell id="HMoB0aPH3kr3e-UjhzIO-36" value="" style="edgeStyle=orthogonalEdgeStyle;rounded=0;orthogonalLoop=1;jettySize=auto;html=1;" edge="1" parent="WIyWlLk6GJQsqaUBKTNV-1" source="HMoB0aPH3kr3e-UjhzIO-26" target="HMoB0aPH3kr3e-UjhzIO-35">
          <mxGeometry relative="1" as="geometry" />
        </mxCell>
        <mxCell id="HMoB0aPH3kr3e-UjhzIO-37" value="No" style="edgeLabel;html=1;align=center;verticalAlign=middle;resizable=0;points=[];" vertex="1" connectable="0" parent="HMoB0aPH3kr3e-UjhzIO-36">
          <mxGeometry x="-0.2" y="2" relative="1" as="geometry">
            <mxPoint as="offset" />
          </mxGeometry>
        </mxCell>
        <mxCell id="HMoB0aPH3kr3e-UjhzIO-26" value="C==B o C==A" style="rhombus;whiteSpace=wrap;html=1;" vertex="1" parent="WIyWlLk6GJQsqaUBKTNV-1">
          <mxGeometry x="410" y="390" width="80" height="80" as="geometry" />
        </mxCell>
        <mxCell id="HMoB0aPH3kr3e-UjhzIO-39" value="" style="edgeStyle=orthogonalEdgeStyle;rounded=0;orthogonalLoop=1;jettySize=auto;html=1;" edge="1" parent="WIyWlLk6GJQsqaUBKTNV-1" source="HMoB0aPH3kr3e-UjhzIO-35" target="HMoB0aPH3kr3e-UjhzIO-38">
          <mxGeometry relative="1" as="geometry" />
        </mxCell>
        <mxCell id="HMoB0aPH3kr3e-UjhzIO-40" value="No" style="edgeLabel;html=1;align=center;verticalAlign=middle;resizable=0;points=[];" vertex="1" connectable="0" parent="HMoB0aPH3kr3e-UjhzIO-39">
          <mxGeometry x="0.075" y="-3" relative="1" as="geometry">
            <mxPoint as="offset" />
          </mxGeometry>
        </mxCell>
        <mxCell id="HMoB0aPH3kr3e-UjhzIO-42" value="" style="edgeStyle=orthogonalEdgeStyle;rounded=0;orthogonalLoop=1;jettySize=auto;html=1;" edge="1" parent="WIyWlLk6GJQsqaUBKTNV-1" source="HMoB0aPH3kr3e-UjhzIO-35">
          <mxGeometry relative="1" as="geometry">
            <mxPoint x="610" y="500" as="targetPoint" />
          </mxGeometry>
        </mxCell>
        <mxCell id="HMoB0aPH3kr3e-UjhzIO-43" value="Si" style="edgeLabel;html=1;align=center;verticalAlign=middle;resizable=0;points=[];" vertex="1" connectable="0" parent="HMoB0aPH3kr3e-UjhzIO-42">
          <mxGeometry x="-0.64" y="3" relative="1" as="geometry">
            <mxPoint x="-3" as="offset" />
          </mxGeometry>
        </mxCell>
        <mxCell id="HMoB0aPH3kr3e-UjhzIO-35" value="A&amp;gt;B" style="rhombus;whiteSpace=wrap;html=1;" vertex="1" parent="WIyWlLk6GJQsqaUBKTNV-1">
          <mxGeometry x="570" y="390" width="80" height="80" as="geometry" />
        </mxCell>
        <mxCell id="HMoB0aPH3kr3e-UjhzIO-65" value="" style="edgeStyle=orthogonalEdgeStyle;rounded=0;orthogonalLoop=1;jettySize=auto;html=1;" edge="1" parent="WIyWlLk6GJQsqaUBKTNV-1" source="HMoB0aPH3kr3e-UjhzIO-38">
          <mxGeometry relative="1" as="geometry">
            <mxPoint x="710" y="270" as="targetPoint" />
          </mxGeometry>
        </mxCell>
        <mxCell id="HMoB0aPH3kr3e-UjhzIO-66" value="Si" style="edgeLabel;html=1;align=center;verticalAlign=middle;resizable=0;points=[];" vertex="1" connectable="0" parent="HMoB0aPH3kr3e-UjhzIO-65">
          <mxGeometry x="-0.4" y="3" relative="1" as="geometry">
            <mxPoint as="offset" />
          </mxGeometry>
        </mxCell>
        <mxCell id="HMoB0aPH3kr3e-UjhzIO-69" value="No" style="edgeLabel;html=1;align=center;verticalAlign=middle;resizable=0;points=[];" vertex="1" connectable="0" parent="HMoB0aPH3kr3e-UjhzIO-65">
          <mxGeometry x="-0.2397" y="3" relative="1" as="geometry">
            <mxPoint as="offset" />
          </mxGeometry>
        </mxCell>
        <mxCell id="HMoB0aPH3kr3e-UjhzIO-68" value="" style="edgeStyle=orthogonalEdgeStyle;rounded=0;orthogonalLoop=1;jettySize=auto;html=1;" edge="1" parent="WIyWlLk6GJQsqaUBKTNV-1" source="HMoB0aPH3kr3e-UjhzIO-38" target="HMoB0aPH3kr3e-UjhzIO-67">
          <mxGeometry relative="1" as="geometry" />
        </mxCell>
        <mxCell id="HMoB0aPH3kr3e-UjhzIO-73" value="Si" style="edgeLabel;html=1;align=center;verticalAlign=middle;resizable=0;points=[];" vertex="1" connectable="0" parent="HMoB0aPH3kr3e-UjhzIO-68">
          <mxGeometry x="-0.2" y="1" relative="1" as="geometry">
            <mxPoint as="offset" />
          </mxGeometry>
        </mxCell>
        <mxCell id="HMoB0aPH3kr3e-UjhzIO-38" value="B&amp;gt;C" style="rhombus;whiteSpace=wrap;html=1;" vertex="1" parent="WIyWlLk6GJQsqaUBKTNV-1">
          <mxGeometry x="570" y="230" width="80" height="80" as="geometry" />
        </mxCell>
        <mxCell id="HMoB0aPH3kr3e-UjhzIO-48" value="" style="edgeStyle=orthogonalEdgeStyle;rounded=0;orthogonalLoop=1;jettySize=auto;html=1;" edge="1" parent="WIyWlLk6GJQsqaUBKTNV-1" source="HMoB0aPH3kr3e-UjhzIO-44">
          <mxGeometry relative="1" as="geometry">
            <mxPoint x="510" y="540" as="targetPoint" />
          </mxGeometry>
        </mxCell>
        <mxCell id="HMoB0aPH3kr3e-UjhzIO-55" value="Si" style="edgeLabel;html=1;align=center;verticalAlign=middle;resizable=0;points=[];" vertex="1" connectable="0" parent="HMoB0aPH3kr3e-UjhzIO-48">
          <mxGeometry x="-0.0249" y="-1" relative="1" as="geometry">
            <mxPoint x="-1" as="offset" />
          </mxGeometry>
        </mxCell>
        <mxCell id="HMoB0aPH3kr3e-UjhzIO-52" value="" style="edgeStyle=orthogonalEdgeStyle;rounded=0;orthogonalLoop=1;jettySize=auto;html=1;entryX=0;entryY=0.5;entryDx=0;entryDy=0;" edge="1" parent="WIyWlLk6GJQsqaUBKTNV-1" source="HMoB0aPH3kr3e-UjhzIO-44" target="HMoB0aPH3kr3e-UjhzIO-53">
          <mxGeometry relative="1" as="geometry" />
        </mxCell>
        <mxCell id="HMoB0aPH3kr3e-UjhzIO-54" value="No" style="edgeLabel;html=1;align=center;verticalAlign=middle;resizable=0;points=[];" vertex="1" connectable="0" parent="HMoB0aPH3kr3e-UjhzIO-52">
          <mxGeometry x="-0.15" y="-2" relative="1" as="geometry">
            <mxPoint as="offset" />
          </mxGeometry>
        </mxCell>
        <mxCell id="HMoB0aPH3kr3e-UjhzIO-44" value="A&amp;gt;C" style="rhombus;whiteSpace=wrap;html=1;" vertex="1" parent="WIyWlLk6GJQsqaUBKTNV-1">
          <mxGeometry x="570" y="500" width="80" height="80" as="geometry" />
        </mxCell>
        <mxCell id="HMoB0aPH3kr3e-UjhzIO-59" value="" style="edgeStyle=orthogonalEdgeStyle;rounded=0;orthogonalLoop=1;jettySize=auto;html=1;" edge="1" parent="WIyWlLk6GJQsqaUBKTNV-1" source="HMoB0aPH3kr3e-UjhzIO-49" target="HMoB0aPH3kr3e-UjhzIO-58">
          <mxGeometry relative="1" as="geometry" />
        </mxCell>
        <mxCell id="HMoB0aPH3kr3e-UjhzIO-60" value="Si" style="edgeLabel;html=1;align=center;verticalAlign=middle;resizable=0;points=[];" vertex="1" connectable="0" parent="HMoB0aPH3kr3e-UjhzIO-59">
          <mxGeometry x="-0.64" y="-1" relative="1" as="geometry">
            <mxPoint as="offset" />
          </mxGeometry>
        </mxCell>
        <mxCell id="HMoB0aPH3kr3e-UjhzIO-62" value="" style="edgeStyle=orthogonalEdgeStyle;rounded=0;orthogonalLoop=1;jettySize=auto;html=1;" edge="1" parent="WIyWlLk6GJQsqaUBKTNV-1" source="HMoB0aPH3kr3e-UjhzIO-49" target="HMoB0aPH3kr3e-UjhzIO-61">
          <mxGeometry relative="1" as="geometry" />
        </mxCell>
        <mxCell id="HMoB0aPH3kr3e-UjhzIO-63" value="No" style="edgeLabel;html=1;align=center;verticalAlign=middle;resizable=0;points=[];" vertex="1" connectable="0" parent="HMoB0aPH3kr3e-UjhzIO-62">
          <mxGeometry x="-0.5667" y="1" relative="1" as="geometry">
            <mxPoint as="offset" />
          </mxGeometry>
        </mxCell>
        <mxCell id="HMoB0aPH3kr3e-UjhzIO-49" value="B&amp;gt;C" style="rhombus;whiteSpace=wrap;html=1;" vertex="1" parent="WIyWlLk6GJQsqaUBKTNV-1">
          <mxGeometry x="430" y="500" width="80" height="80" as="geometry" />
        </mxCell>
        <mxCell id="HMoB0aPH3kr3e-UjhzIO-81" style="edgeStyle=orthogonalEdgeStyle;rounded=0;orthogonalLoop=1;jettySize=auto;html=1;entryX=0.5;entryY=0;entryDx=0;entryDy=0;" edge="1" parent="WIyWlLk6GJQsqaUBKTNV-1" source="HMoB0aPH3kr3e-UjhzIO-53" target="HMoB0aPH3kr3e-UjhzIO-12">
          <mxGeometry relative="1" as="geometry" />
        </mxCell>
        <mxCell id="HMoB0aPH3kr3e-UjhzIO-53" value="C es el mayor y B el menor" style="rounded=0;whiteSpace=wrap;html=1;" vertex="1" parent="WIyWlLk6GJQsqaUBKTNV-1">
          <mxGeometry x="690" y="510" width="120" height="60" as="geometry" />
        </mxCell>
        <mxCell id="HMoB0aPH3kr3e-UjhzIO-82" style="edgeStyle=orthogonalEdgeStyle;rounded=0;orthogonalLoop=1;jettySize=auto;html=1;entryX=0;entryY=0.5;entryDx=0;entryDy=0;" edge="1" parent="WIyWlLk6GJQsqaUBKTNV-1" source="HMoB0aPH3kr3e-UjhzIO-58" target="HMoB0aPH3kr3e-UjhzIO-12">
          <mxGeometry relative="1" as="geometry" />
        </mxCell>
        <mxCell id="HMoB0aPH3kr3e-UjhzIO-58" value="A es el mayor y C el menor" style="whiteSpace=wrap;html=1;" vertex="1" parent="WIyWlLk6GJQsqaUBKTNV-1">
          <mxGeometry x="410" y="610" width="120" height="60" as="geometry" />
        </mxCell>
        <mxCell id="HMoB0aPH3kr3e-UjhzIO-83" style="edgeStyle=orthogonalEdgeStyle;rounded=0;orthogonalLoop=1;jettySize=auto;html=1;" edge="1" parent="WIyWlLk6GJQsqaUBKTNV-1" source="HMoB0aPH3kr3e-UjhzIO-61" target="HMoB0aPH3kr3e-UjhzIO-12">
          <mxGeometry relative="1" as="geometry" />
        </mxCell>
        <mxCell id="HMoB0aPH3kr3e-UjhzIO-61" value="A es el mayor y B el menor" style="whiteSpace=wrap;html=1;" vertex="1" parent="WIyWlLk6GJQsqaUBKTNV-1">
          <mxGeometry x="250" y="510" width="120" height="60" as="geometry" />
        </mxCell>
        <mxCell id="HMoB0aPH3kr3e-UjhzIO-75" value="No" style="edgeStyle=orthogonalEdgeStyle;rounded=0;orthogonalLoop=1;jettySize=auto;html=1;" edge="1" parent="WIyWlLk6GJQsqaUBKTNV-1" source="HMoB0aPH3kr3e-UjhzIO-67" target="HMoB0aPH3kr3e-UjhzIO-74">
          <mxGeometry relative="1" as="geometry" />
        </mxCell>
        <mxCell id="HMoB0aPH3kr3e-UjhzIO-78" value="" style="edgeStyle=orthogonalEdgeStyle;rounded=0;orthogonalLoop=1;jettySize=auto;html=1;" edge="1" parent="WIyWlLk6GJQsqaUBKTNV-1" source="HMoB0aPH3kr3e-UjhzIO-67" target="HMoB0aPH3kr3e-UjhzIO-77">
          <mxGeometry relative="1" as="geometry" />
        </mxCell>
        <mxCell id="HMoB0aPH3kr3e-UjhzIO-80" value="Si" style="edgeLabel;html=1;align=center;verticalAlign=middle;resizable=0;points=[];" vertex="1" connectable="0" parent="HMoB0aPH3kr3e-UjhzIO-78">
          <mxGeometry y="-5" relative="1" as="geometry">
            <mxPoint x="-10" y="-5" as="offset" />
          </mxGeometry>
        </mxCell>
        <mxCell id="HMoB0aPH3kr3e-UjhzIO-67" value="A&amp;gt;C" style="rhombus;whiteSpace=wrap;html=1;" vertex="1" parent="WIyWlLk6GJQsqaUBKTNV-1">
          <mxGeometry x="570" y="110" width="80" height="80" as="geometry" />
        </mxCell>
        <mxCell id="HMoB0aPH3kr3e-UjhzIO-84" style="edgeStyle=orthogonalEdgeStyle;rounded=0;orthogonalLoop=1;jettySize=auto;html=1;entryX=0.5;entryY=0;entryDx=0;entryDy=0;" edge="1" parent="WIyWlLk6GJQsqaUBKTNV-1" source="HMoB0aPH3kr3e-UjhzIO-72" target="HMoB0aPH3kr3e-UjhzIO-12">
          <mxGeometry relative="1" as="geometry" />
        </mxCell>
        <mxCell id="HMoB0aPH3kr3e-UjhzIO-72" value="C es el mayor y A el menor" style="rounded=0;whiteSpace=wrap;html=1;" vertex="1" parent="WIyWlLk6GJQsqaUBKTNV-1">
          <mxGeometry x="707" y="240" width="120" height="60" as="geometry" />
        </mxCell>
        <mxCell id="HMoB0aPH3kr3e-UjhzIO-86" style="edgeStyle=orthogonalEdgeStyle;rounded=0;orthogonalLoop=1;jettySize=auto;html=1;" edge="1" parent="WIyWlLk6GJQsqaUBKTNV-1" source="HMoB0aPH3kr3e-UjhzIO-74" target="HMoB0aPH3kr3e-UjhzIO-12">
          <mxGeometry relative="1" as="geometry" />
        </mxCell>
        <mxCell id="HMoB0aPH3kr3e-UjhzIO-74" value="B es el mayor y C es el menor" style="whiteSpace=wrap;html=1;" vertex="1" parent="WIyWlLk6GJQsqaUBKTNV-1">
          <mxGeometry x="550" y="-20" width="120" height="60" as="geometry" />
        </mxCell>
        <mxCell id="HMoB0aPH3kr3e-UjhzIO-85" style="edgeStyle=orthogonalEdgeStyle;rounded=0;orthogonalLoop=1;jettySize=auto;html=1;" edge="1" parent="WIyWlLk6GJQsqaUBKTNV-1" source="HMoB0aPH3kr3e-UjhzIO-77" target="HMoB0aPH3kr3e-UjhzIO-12">
          <mxGeometry relative="1" as="geometry" />
        </mxCell>
        <mxCell id="HMoB0aPH3kr3e-UjhzIO-77" value="B es el mayor y A es el menor" style="whiteSpace=wrap;html=1;" vertex="1" parent="WIyWlLk6GJQsqaUBKTNV-1">
          <mxGeometry x="710" y="120" width="120" height="60" as="geometry" />
        </mxCell>
      </root>
    </mxGraphModel>
  </diagram>
</mxfile>
